<svg width="224" height="337" viewBox="0 0 224 337" fill="none" xmlns="http://www.w3.org/2000/svg">
<path d="M142.426 169L217.092 98.2534C219.413 96.083 221.218 93.4206 222.375 90.4615C223.532 87.5025 224.012 84.3218 223.779 81.1531C223.546 77.9844 222.607 74.908 221.03 72.1498C219.453 69.3915 217.278 67.0214 214.666 65.2134L127.492 4.92002C124.223 2.63133 120.39 1.28208 116.408 1.01881C112.426 0.755538 108.448 1.58831 104.906 3.42669C101.475 5.20772 98.5882 7.88224 96.5511 11.1678C94.514 14.4534 93.402 18.2281 93.3325 22.0934V137.827L33.7858 63.16C30.5679 59.2985 25.9477 56.8734 20.9417 56.4183C15.9358 55.9632 10.954 57.5154 7.09248 60.7333C3.23093 63.9513 0.805869 68.5715 0.350781 73.5774C-0.104307 78.5834 1.44786 83.5651 4.66582 87.4267L69.4391 169L4.10581 251.693C1.05366 255.562 -0.345198 260.48 0.214294 265.375C0.773786 270.271 3.24624 274.747 7.09248 277.827C10.4958 280.129 14.5639 281.245 18.6658 281C21.4696 280.987 24.2345 280.343 26.7552 279.115C29.2758 277.887 31.4875 276.107 33.2258 273.907L93.3325 198.12V315.533C93.3817 321.244 95.6847 326.704 99.7402 330.724C103.796 334.745 109.275 337 114.986 337C119.46 337.017 123.829 335.647 127.492 333.08L214.106 273.72C216.688 271.895 218.843 269.531 220.423 266.792C222.002 264.052 222.967 261.003 223.252 257.853C223.498 254.73 223.057 251.591 221.961 248.657C220.864 245.722 219.139 243.064 216.906 240.867L142.426 169ZM130.666 52.52L177.332 84.8134L130.666 128.867V52.52ZM130.666 285.667V209.693L176.772 254.12L130.666 285.667Z" fill="url(#paint0_linear_71_67)" fill-opacity="0.1"/>
<defs>
<linearGradient id="paint0_linear_71_67" x1="61.2153" y1="366.334" x2="283.27" y2="28.7346" gradientUnits="userSpaceOnUse">
<stop stop-color="#9664F9"/>
<stop offset="0.912448" stop-color="#9664F9" stop-opacity="0"/>
</linearGradient>
</defs>
</svg>
