<svg width="257" height="248" viewBox="0 0 257 248" fill="none" xmlns="http://www.w3.org/2000/svg">
<path d="M25.339 24.6603C35.1545 14.9218 47.2211 7.75518 60.4691 3.79586C73.7171 -0.163451 87.7373 -0.793197 101.287 1.96244L75.9239 21.1833C72.0362 24.129 68.769 27.8141 66.3103 32.0267C63.8516 36.2393 62.2498 40.8963 61.597 45.73C60.9442 50.5638 61.2533 55.4789 62.5064 60.1928C63.7596 64.9067 65.9321 69.3264 68.8992 73.1978C74.9007 81.026 83.7554 86.162 93.5303 87.4847C103.305 88.8074 113.206 86.2094 121.073 80.2578L156.62 53.3416H172.664L206.852 87.3178L206.94 87.2296L235.321 115.981C235.457 116.122 235.598 116.257 235.745 116.387L251.012 131.655C254.247 134.928 256.105 139.315 256.206 143.916C256.307 148.516 254.642 152.981 251.554 156.392C248.466 159.804 244.188 161.903 239.6 162.259C235.012 162.615 230.462 161.201 226.884 158.306L225.596 157.035C225.298 156.736 224.98 156.459 224.643 156.206L209.64 141.203C207.986 139.546 205.74 138.614 203.398 138.613C201.057 138.611 198.81 139.54 197.153 141.194C195.496 142.849 194.564 145.094 194.562 147.436C194.561 149.778 195.489 152.025 197.144 153.682L213.064 169.602C213.664 170.202 214.3 170.767 214.918 171.314L215.447 171.844C217.736 174.13 219.023 177.233 219.025 180.468C219.026 183.704 217.743 186.808 215.456 189.097C213.169 191.386 210.067 192.673 206.831 192.674C203.596 192.676 200.492 191.392 198.203 189.105L195.856 186.776C194.614 185.538 193.032 184.698 191.311 184.363C189.59 184.028 187.808 184.213 186.193 184.894C184.578 185.576 183.202 186.723 182.242 188.19C181.281 189.657 180.779 191.376 180.8 193.13C180.776 194.316 180.992 195.495 181.434 196.596C181.877 197.697 182.538 198.697 183.377 199.537L186.466 202.625C187.501 203.66 188.322 204.889 188.882 206.241C189.442 207.593 189.73 209.042 189.73 210.506C189.73 211.97 189.442 213.419 188.882 214.771C188.322 216.123 187.501 217.352 186.466 218.387C185.431 219.422 184.202 220.243 182.85 220.803C181.498 221.363 180.049 221.651 178.585 221.651C177.122 221.651 175.672 221.363 174.32 220.803C172.968 220.243 171.739 219.422 170.704 218.387L169.134 216.798C168.6 216.169 168.041 215.562 167.457 214.98L164.58 212.103C162.915 210.496 160.686 209.606 158.372 209.626C156.058 209.646 153.845 210.575 152.209 212.211C150.573 213.847 149.644 216.06 149.624 218.374C149.604 220.688 150.494 222.917 152.101 224.582L154.255 226.735C154.519 227.088 154.819 227.441 155.137 227.777L156.002 228.624C157.762 230.908 158.595 233.772 158.333 236.644C158.071 239.516 156.734 242.183 154.59 244.111C152.445 246.039 149.652 247.085 146.768 247.041C143.885 246.997 141.125 245.866 139.04 243.873L123.773 229.489L129.633 223.664C132.255 221.065 134.337 217.972 135.757 214.564C137.178 211.156 137.909 207.5 137.909 203.808C137.909 200.116 137.178 196.46 135.757 193.052C134.337 189.644 132.255 186.551 129.633 183.952C124.516 178.859 117.646 175.916 110.43 175.727C110.232 168.546 107.274 161.719 102.169 156.665C97.0584 151.575 90.1944 148.632 82.9839 148.44C82.7818 141.257 79.8167 134.429 74.706 129.378C71.4334 126.123 67.4158 123.716 63.0021 122.366C58.5884 121.015 53.9118 120.763 49.3783 121.629C48.2463 116.297 45.5771 111.413 41.7005 107.58C36.7274 102.657 30.1125 99.7414 23.1232 99.3929C16.1339 99.0444 9.26178 101.287 3.8236 105.691C-0.117507 91.4931 -0.199742 76.5005 3.58538 62.2597C7.3705 48.019 14.8859 35.0458 25.3566 24.678L25.339 24.6603Z" fill="url(#paint0_linear_71_52)" fill-opacity="0.1"/>
<defs>
<linearGradient id="paint0_linear_71_52" x1="70.5771" y1="268.585" x2="198.045" y2="-32.6557" gradientUnits="userSpaceOnUse">
<stop stop-color="#9664F9"/>
<stop offset="0.912448" stop-color="#9664F9" stop-opacity="0"/>
</linearGradient>
</defs>
</svg>
