<svg width="48" height="32" viewBox="0 0 48 32" fill="none" xmlns="http://www.w3.org/2000/svg">
<g filter="url(#filter0_d_71_161)">
<path d="M24 23V21C24 19.9391 23.5786 18.9217 22.8284 18.1716C22.0783 17.4214 21.0609 17 20 17H12C10.9391 17 9.92172 17.4214 9.17157 18.1716C8.42143 18.9217 8 19.9391 8 21V23" stroke="black" stroke-width="1.1" stroke-linecap="round" stroke-linejoin="round"/>
<path d="M16 13C18.2091 13 20 11.2091 20 9C20 6.79086 18.2091 5 16 5C13.7909 5 12 6.79086 12 9C12 11.2091 13.7909 13 16 13Z" stroke="black" stroke-width="1.1" stroke-linecap="round" stroke-linejoin="round"/>
<path d="M37.5834 5.16674C36.204 5.03427 34.8225 5.39717 33.6863 6.19044C32.5502 6.98372 31.7335 8.15555 31.3825 9.49609C31.0316 10.8366 31.1694 12.2583 31.7711 13.5065C32.3729 14.7548 33.3993 15.748 34.6667 16.3084C35.4007 16.6403 36.1946 16.819 37 16.8334C38.2822 16.8335 39.5287 16.4112 40.5467 15.6317C40.6696 15.538 40.7502 15.3994 40.771 15.2463C40.7918 15.0932 40.751 14.9381 40.6575 14.8151C40.6111 14.7534 40.5529 14.7016 40.4862 14.6626C40.4196 14.6236 40.3459 14.5982 40.2694 14.5879C40.1929 14.5775 40.1151 14.5825 40.0406 14.6025C39.966 14.6225 39.8961 14.6571 39.835 14.7042C39.23 15.1612 38.5228 15.4639 37.7745 15.5861C37.0263 15.7084 36.2595 15.6464 35.5405 15.4057C34.8216 15.1649 34.1721 14.7527 33.6483 14.2045C33.1245 13.6563 32.7422 12.9888 32.5343 12.2596C32.3265 11.5305 32.2995 10.7617 32.4556 10.0197C32.6117 9.2778 32.9462 8.58506 33.4302 8.00145C33.9142 7.41785 34.5331 6.96097 35.2334 6.67033C35.9336 6.37969 36.6942 6.26404 37.4492 6.33341C38.6209 6.46903 39.7008 7.03436 40.4798 7.92008C41.2588 8.80579 41.6817 9.94893 41.6667 11.1284V11.5251C41.666 11.6591 41.6383 11.7916 41.5853 11.9147C41.5323 12.0377 41.4551 12.1489 41.3581 12.2414C41.2612 12.334 41.1467 12.4061 41.0213 12.4534C40.8959 12.5007 40.7623 12.5222 40.6284 12.5167C40.3613 12.4874 40.1153 12.358 39.94 12.1544C39.7646 11.9509 39.6729 11.6885 39.6834 11.4201V8.90007C39.6834 8.74536 39.6219 8.59699 39.5125 8.48759C39.4031 8.3782 39.2547 8.31674 39.1 8.31674C38.9576 8.31553 38.8196 8.36647 38.7122 8.45996C38.6047 8.55345 38.5352 8.68302 38.5167 8.82424C37.9738 8.31299 37.2557 8.0291 36.51 8.03091C36.0032 8.03471 35.5058 8.16817 35.0652 8.4186C34.6245 8.66903 34.2553 9.02809 33.9927 9.46158C33.7301 9.89507 33.5829 10.3886 33.565 10.8951C33.5471 11.4016 33.6591 11.9042 33.8904 12.3552C34.1218 12.8062 34.4647 13.1904 34.8865 13.4713C35.3084 13.7522 35.7951 13.9205 36.3004 13.9601C36.8057 13.9997 37.3127 13.9093 37.7731 13.6974C38.2336 13.4856 38.6321 13.1595 38.9309 12.7501C39.1002 13.012 39.3257 13.2329 39.5911 13.3968C39.8565 13.5607 40.155 13.6634 40.465 13.6975C40.7751 13.7315 41.0888 13.6961 41.3834 13.5938C41.678 13.4915 41.9462 13.3248 42.1684 13.1059C42.3822 12.9025 42.5516 12.657 42.6661 12.385C42.7805 12.1129 42.8375 11.8202 42.8334 11.5251V11.1284C42.8464 9.66248 42.3178 8.24333 41.3489 7.14314C40.3801 6.04294 39.0392 5.33915 37.5834 5.16674ZM36.5217 12.8026C36.1652 12.8026 35.8167 12.6969 35.5203 12.4988C35.2239 12.3007 34.9928 12.0192 34.8564 11.6899C34.72 11.3605 34.6843 10.9981 34.7538 10.6484C34.8234 10.2988 34.995 9.9776 35.2471 9.72551C35.4992 9.47343 35.8204 9.30176 36.17 9.23221C36.5197 9.16266 36.8821 9.19835 37.2115 9.33478C37.5408 9.47121 37.8223 9.70224 38.0204 9.99866C38.2185 10.2951 38.3242 10.6436 38.3242 11.0001C38.3226 11.4777 38.1322 11.9352 37.7945 12.2729C37.4568 12.6106 36.9993 12.801 36.5217 12.8026Z" fill="black"/>
<line x1="30.55" y1="20.2735" x2="43.2147" y2="20.2735" stroke="black" stroke-width="1.1" stroke-linecap="round"/>
<line x1="30.55" y1="23.45" x2="36.8618" y2="23.45" stroke="black" stroke-width="1.1" stroke-linecap="round"/>
</g>
<defs>
<filter id="filter0_d_71_161" x="0" y="0" width="48" height="32" filterUnits="userSpaceOnUse" color-interpolation-filters="sRGB">
<feFlood flood-opacity="0" result="BackgroundImageFix"/>
<feColorMatrix in="SourceAlpha" type="matrix" values="0 0 0 0 0 0 0 0 0 0 0 0 0 0 0 0 0 0 127 0" result="hardAlpha"/>
<feOffset dy="2"/>
<feGaussianBlur stdDeviation="2"/>
<feColorMatrix type="matrix" values="0 0 0 0 0.356863 0 0 0 0 0.0392157 0 0 0 0 0.603922 0 0 0 0.4 0"/>
<feBlend mode="normal" in2="BackgroundImageFix" result="effect1_dropShadow_71_161"/>
<feBlend mode="normal" in="SourceGraphic" in2="effect1_dropShadow_71_161" result="shape"/>
</filter>
</defs>
</svg>
