<svg width="68" height="68" viewBox="0 0 68 68" fill="none" xmlns="http://www.w3.org/2000/svg">
<path d="M64.2822 0H4.35826C3.37222 0 2.42656 0.391704 1.72932 1.08894C1.03208 1.78618 0.640381 2.73184 0.640381 3.71788V63.6427C0.640629 64.6286 1.03244 65.574 1.72965 66.271C2.42686 66.9681 3.37238 67.3597 4.35826 67.3597H36.6189V41.2746H27.8406V31.1089H36.6189V23.6114C36.6189 14.9108 41.9328 10.1741 49.6941 10.1741C53.412 10.1741 56.6069 10.4501 57.5387 10.5745V19.6671L52.1556 19.67C47.9343 19.67 47.1176 21.6758 47.1176 24.619V31.1099H57.1841L55.8734 41.2756H47.1176V67.3597H64.2831C65.269 67.3594 66.2144 66.9676 66.9114 66.2704C67.6085 65.5732 68 64.6277 68 63.6418V3.71788C68 2.73184 67.6083 1.78618 66.9111 1.08894C66.2139 0.391704 65.2682 0 64.2822 0Z" fill="url(#paint0_linear_31_66)"/>
<defs>
<linearGradient id="paint0_linear_31_66" x1="34.3202" y1="0" x2="34.3202" y2="67.3597" gradientUnits="userSpaceOnUse">
<stop stop-color="#935FF4"/>
<stop offset="1" stop-color="#8447DB"/>
</linearGradient>
</defs>
</svg>
