<svg width="68" height="68" viewBox="0 0 68 68" fill="none" xmlns="http://www.w3.org/2000/svg">
<path d="M34.2265 0C25.0867 0 23.9373 0.0420998 20.3462 0.202079C16.7551 0.370478 14.3091 0.934615 12.1662 1.76819C9.9185 2.61364 7.88254 3.93981 6.20069 5.654C4.48755 7.33671 3.16154 9.37242 2.31488 11.6195C1.48131 13.7582 0.91296 16.2084 0.748771 19.7869C0.588792 23.3864 0.546692 24.5315 0.546692 33.684C0.546692 42.8281 0.588792 43.9732 0.748771 47.5643C0.91717 51.1512 1.48131 53.5972 2.31488 55.7401C3.17793 57.9546 4.32725 59.8322 6.20069 61.7057C8.06992 63.5791 9.94757 64.7326 12.162 65.5915C14.3091 66.425 16.7509 66.9934 20.3378 67.1576C23.9331 67.3176 25.0782 67.3597 34.2265 67.3597C43.3748 67.3597 44.5157 67.3176 48.111 67.1576C51.6937 66.9892 54.1481 66.425 56.291 65.5915C58.5373 64.7456 60.5718 63.4194 62.2523 61.7057C64.1258 59.8322 65.2751 57.9546 66.1382 55.7401C66.9675 53.5972 67.5359 51.1512 67.7043 47.5643C67.8642 43.9732 67.9063 42.8281 67.9063 33.6798C67.9063 24.5315 67.8642 23.3864 67.7043 19.7911C67.5359 16.2084 66.9675 13.7582 66.1382 11.6195C65.2916 9.37236 63.9656 7.33663 62.2523 5.654C60.571 3.93917 58.5349 2.6129 56.2868 1.76819C54.1397 0.934615 51.6895 0.366268 48.1068 0.202079C44.5115 0.0420998 43.3706 0 34.2181 0H34.2307H34.2265ZM31.208 6.07079H34.2307C43.2232 6.07079 44.2884 6.10026 47.8374 6.26445C51.1212 6.4118 52.9062 6.9633 54.0934 7.42219C55.6637 8.03264 56.7878 8.76517 57.9666 9.94397C59.1454 11.1228 59.8737 12.2426 60.4842 13.8172C60.9473 15.0002 61.4945 16.7852 61.6419 20.069C61.8061 23.618 61.8398 24.6831 61.8398 33.6714C61.8398 42.6597 61.8061 43.729 61.6419 47.2781C61.4945 50.5618 60.943 52.3427 60.4842 53.5299C59.9442 54.9923 59.0823 56.3145 57.9624 57.3988C56.7836 58.5776 55.6637 59.306 54.0892 59.9164C52.9104 60.3795 51.1254 60.9268 47.8374 61.0784C44.2884 61.2383 43.2232 61.2762 34.2307 61.2762C25.2382 61.2762 24.1689 61.2383 20.6199 61.0784C17.3361 60.9268 15.5553 60.3795 14.3681 59.9164C12.9051 59.3772 11.5816 58.5169 10.4949 57.3988C9.37397 56.3128 8.51081 54.9893 7.96888 53.5257C7.51 52.3427 6.95849 50.5576 6.81114 47.2738C6.65116 43.7248 6.61748 42.6597 6.61748 33.663C6.61748 24.6705 6.65116 23.6096 6.81114 20.0605C6.9627 16.7768 7.51 14.9917 7.97309 13.8045C8.58354 12.2342 9.31608 11.1101 10.4949 9.93134C11.6737 8.75255 12.7935 8.02422 14.3681 7.41377C15.5553 6.95067 17.3361 6.40338 20.6199 6.25182C23.7268 6.10868 24.9309 6.06658 31.208 6.06237V6.07079ZM52.2073 11.6616C51.6766 11.6616 51.151 11.7662 50.6607 11.9693C50.1703 12.1724 49.7248 12.4701 49.3495 12.8454C48.9742 13.2207 48.6765 13.6662 48.4734 14.1566C48.2703 14.6469 48.1658 15.1725 48.1658 15.7032C48.1658 16.234 48.2703 16.7595 48.4734 17.2499C48.6765 17.7402 48.9742 18.1858 49.3495 18.561C49.7248 18.9363 50.1703 19.234 50.6607 19.4372C51.151 19.6403 51.6766 19.7448 52.2073 19.7448C53.2792 19.7448 54.3072 19.319 55.0652 18.561C55.8231 17.8031 56.2489 16.7751 56.2489 15.7032C56.2489 14.6313 55.8231 13.6033 55.0652 12.8454C54.3072 12.0874 53.2792 11.6616 52.2073 11.6616ZM34.2307 16.3852C31.9366 16.3494 29.6582 16.7704 27.5284 17.6236C25.3985 18.4767 23.4596 19.7451 21.8246 21.3548C20.1896 22.9645 18.8911 24.8834 18.0048 26.9997C17.1185 29.116 16.6621 31.3875 16.6621 33.6819C16.6621 35.9764 17.1185 38.2479 18.0048 40.3642C18.8911 42.4805 20.1896 44.3994 21.8246 46.0091C23.4596 47.6188 25.3985 48.8871 27.5284 49.7403C29.6582 50.5935 31.9366 51.0144 34.2307 50.9786C38.7714 50.9078 43.1021 49.0543 46.288 45.8183C49.474 42.5822 51.2597 38.2231 51.2597 33.6819C51.2597 29.1407 49.474 24.7817 46.288 21.5456C43.1021 18.3096 38.7714 16.4561 34.2307 16.3852ZM34.2307 22.4518C37.2086 22.4518 40.0645 23.6348 42.1701 25.7404C44.2758 27.8461 45.4587 30.702 45.4587 33.6798C45.4587 36.6577 44.2758 39.5136 42.1701 41.6192C40.0645 43.7249 37.2086 44.9078 34.2307 44.9078C31.2529 44.9078 28.397 43.7249 26.2913 41.6192C24.1857 39.5136 23.0027 36.6577 23.0027 33.6798C23.0027 30.702 24.1857 27.8461 26.2913 25.7404C28.397 23.6348 31.2529 22.4518 34.2307 22.4518Z" fill="url(#paint0_linear_31_75)"/>
<defs>
<linearGradient id="paint0_linear_31_75" x1="34.2265" y1="0" x2="34.2265" y2="67.3597" gradientUnits="userSpaceOnUse">
<stop stop-color="#935FF4"/>
<stop offset="1" stop-color="#8447DB"/>
</linearGradient>
</defs>
</svg>
