<svg width="68" height="68" viewBox="0 0 68 68" fill="none" xmlns="http://www.w3.org/2000/svg">
<path d="M62.3704 0H4.97245C2.22755 0 0 2.17516 0 4.85364V62.4995C0 65.1817 2.22755 67.3597 4.97245 67.3597H62.3704C65.1171 67.3597 67.3597 65.1817 67.3597 62.4995V4.85364C67.3597 2.17516 65.1171 0 62.3704 0ZM19.9778 57.3998H9.98233V25.2552H19.9778V57.3998ZM14.98 20.86C14.2192 20.86 13.4659 20.7101 12.763 20.4188C12.0602 20.1275 11.4216 19.7006 10.8838 19.1625C10.346 18.6243 9.91953 17.9855 9.62872 17.2825C9.33792 16.5794 9.18849 15.826 9.18898 15.0652C9.18898 13.5294 9.79906 12.0566 10.885 10.9706C11.971 9.88466 13.4438 9.27458 14.9796 9.27458C16.5153 9.27458 17.9882 9.88466 19.0741 10.9706C20.1601 12.0566 20.7702 13.5294 20.7702 15.0652C20.7702 16.6012 20.1603 18.0745 19.0746 19.1611C17.9888 20.2477 16.5161 20.8587 14.98 20.86ZM57.396 57.3998H47.4165V41.7686C47.4165 38.0395 47.3435 33.2448 42.2233 33.2448C37.0235 33.2448 36.2311 37.306 36.2311 41.4982V57.4007H26.2441V25.2552H35.8288V29.6448H35.9654C37.2995 27.1188 40.5589 24.4534 45.4201 24.4534C55.5296 24.4534 57.397 31.1089 57.397 39.7675V57.3998H57.396Z" fill="url(#paint0_linear_31_68)"/>
<defs>
<linearGradient id="paint0_linear_31_68" x1="33.6798" y1="0" x2="33.6798" y2="67.3597" gradientUnits="userSpaceOnUse">
<stop stop-color="#935FF4"/>
<stop offset="1" stop-color="#8447DB"/>
</linearGradient>
</defs>
</svg>
