<svg width="224" height="224" viewBox="0 0 224 224" fill="none" xmlns="http://www.w3.org/2000/svg">
<path d="M57.82 11.1019C67.3677 3.87115 79.0233 -0.0288171 91 -5.56759e-05C94.36 -5.56759e-05 97.034 1.74994 98.588 2.95394C100.324 4.32594 101.948 6.07594 103.404 7.82594C104.436 9.07984 105.001 10.6537 105 12.2779V62.9999H89.81C88.1587 58.3294 84.9095 54.3931 80.6366 51.8865C76.3638 49.38 71.3423 48.4647 66.4599 49.3024C61.5774 50.1401 57.1483 52.6768 53.9553 56.4643C50.7623 60.2518 49.011 65.0461 49.011 69.9999C49.011 74.9538 50.7623 79.7481 53.9553 83.5356C57.1483 87.323 61.5774 89.8598 66.4599 90.6975C71.3423 91.5352 76.3638 90.6199 80.6366 88.1134C84.9095 85.6068 88.1587 81.6704 89.81 76.9999H105V208.81C105.001 209.846 104.771 210.87 104.328 211.807C103.885 212.744 103.24 213.571 102.438 214.228C95.97 219.52 87.318 224 77 224C60.396 224 48.034 215.628 40.04 205.618C34.2966 198.486 30.3629 190.071 28.574 181.09C23.1347 179.64 18.0915 176.984 13.818 173.32C6.09 166.698 0 155.96 0 140C0 132.202 0.517998 125.16 1.68 119H45.5C54.404 119 61.74 125.65 62.86 134.246C58.2043 135.931 54.2936 139.207 51.8185 143.495C49.3434 147.783 48.463 152.808 49.3329 157.682C50.2028 162.556 52.7669 166.966 56.5726 170.134C60.3782 173.301 65.1806 175.022 70.1318 174.992C75.0829 174.963 79.8644 173.185 83.6319 169.972C87.3994 166.759 89.9107 162.319 90.7222 157.435C91.5338 152.55 90.5935 147.536 88.0673 143.278C85.5411 139.02 81.5915 135.791 76.916 134.162C76.3259 126.234 72.7598 118.822 66.9332 113.413C61.1064 108.005 53.4501 104.999 45.5 105H6.174C8.316 100.828 11.186 97.2999 14.924 94.7939C15.8695 94.168 16.8618 93.6157 17.892 93.1419C13.916 81.4939 14.952 67.8579 18.788 57.1479C21.238 50.2599 25.13 43.7499 30.478 39.4099C34.006 36.5399 38.206 34.6499 42.798 34.2859C44.814 24.7239 50.484 16.8139 57.834 11.1019H57.82ZM119 175H129.5C137.854 175 145.866 171.681 151.774 165.774C157.681 159.866 161 151.854 161 143.5V117.81C165.671 116.159 169.607 112.909 172.113 108.637C174.62 104.364 175.535 99.3423 174.698 94.4598C173.86 89.5773 171.323 85.1482 167.536 81.9552C163.748 78.7622 158.954 77.011 154 77.011C149.046 77.011 144.252 78.7622 140.464 81.9552C136.677 85.1482 134.14 89.5773 133.302 94.4598C132.465 99.3423 133.38 104.364 135.887 108.637C138.393 112.909 142.329 116.159 147 117.81V143.5C147 153.16 139.16 161 129.5 161H119V12.2779C118.999 10.6537 119.564 9.07984 120.596 7.82594C122.038 6.07594 123.676 4.32594 125.412 2.95394C126.952 1.74994 129.626 -5.56759e-05 133 -5.56759e-05C144.977 -0.0288171 156.632 3.87115 166.18 11.1019C173.53 16.8139 179.2 24.7239 181.202 34.2859C185.794 34.6359 189.994 36.5399 193.522 39.4099C198.87 43.7499 202.762 50.2599 205.212 57.1479C209.048 67.8579 210.084 81.5079 206.108 93.128C207.116 93.604 208.11 94.1639 209.076 94.808C212.926 97.3699 215.852 101.038 218.008 105.364C222.25 113.834 224 125.65 224 140C224 155.974 217.91 166.698 210.182 173.32C205.909 176.984 200.865 179.64 195.426 181.09C194.026 188.902 190.106 197.946 183.96 205.618C175.98 215.628 163.604 224 147 224C136.696 224 128.03 219.52 121.576 214.228C120.772 213.572 120.124 212.746 119.678 211.809C119.233 210.872 119.001 209.848 119 208.81V175ZM70 62.9999C68.1435 62.9999 66.363 63.7374 65.0503 65.0502C63.7375 66.363 63 68.1434 63 69.9999C63 71.8565 63.7375 73.6369 65.0503 74.9497C66.363 76.2624 68.1435 76.9999 70 76.9999C71.8565 76.9999 73.637 76.2624 74.9497 74.9497C76.2625 73.6369 77 71.8565 77 69.9999C77 68.1434 76.2625 66.363 74.9497 65.0502C73.637 63.7374 71.8565 62.9999 70 62.9999ZM70 147C68.1435 147 66.363 147.737 65.0503 149.05C63.7375 150.363 63 152.143 63 154C63 155.856 63.7375 157.637 65.0503 158.95C66.363 160.262 68.1435 161 70 161C71.8565 161 73.637 160.262 74.9497 158.95C76.2625 157.637 77 155.856 77 154C77 152.143 76.2625 150.363 74.9497 149.05C73.637 147.737 71.8565 147 70 147ZM154 105C155.857 105 157.637 104.262 158.95 102.95C160.263 101.637 161 99.8565 161 97.9999C161 96.1434 160.263 94.3629 158.95 93.0502C157.637 91.7374 155.857 90.9999 154 90.9999C152.143 90.9999 150.363 91.7374 149.05 93.0502C147.737 94.3629 147 96.1434 147 97.9999C147 99.8565 147.737 101.637 149.05 102.95C150.363 104.262 152.143 105 154 105Z" fill="url(#paint0_linear_71_28)" fill-opacity="0.1"/>
<defs>
<linearGradient id="paint0_linear_71_28" x1="61.192" y1="243.554" x2="179.669" y2="-26.9674" gradientUnits="userSpaceOnUse">
<stop stop-color="#9664F9"/>
<stop offset="0.912448" stop-color="#9664F9" stop-opacity="0"/>
</linearGradient>
</defs>
</svg>
