<svg width="145" height="40" viewBox="0 0 145 40" fill="none" xmlns="http://www.w3.org/2000/svg">
<rect width="145" height="40" fill="url(#paint0_linear_36_28)"/>
<g filter="url(#filter0_d_36_28)">
<path d="M35.3294 26.224C34.4228 26.224 33.5428 26.112 32.6894 25.888C31.8361 25.664 31.1428 25.3653 30.6094 24.992L31.6494 22.656C32.1508 22.9867 32.7321 23.2533 33.3934 23.456C34.0548 23.6587 34.7054 23.76 35.3454 23.76C36.5614 23.76 37.1694 23.456 37.1694 22.848C37.1694 22.528 36.9934 22.2933 36.6414 22.144C36.3001 21.984 35.7454 21.8187 34.9774 21.648C34.1348 21.4667 33.4308 21.2747 32.8654 21.072C32.3001 20.8587 31.8148 20.5227 31.4094 20.064C31.0041 19.6053 30.8014 18.9867 30.8014 18.208C30.8014 17.5253 30.9881 16.912 31.3614 16.368C31.7348 15.8133 32.2894 15.376 33.0254 15.056C33.7721 14.736 34.6841 14.576 35.7614 14.576C36.4974 14.576 37.2228 14.6613 37.9374 14.832C38.6521 14.992 39.2814 15.232 39.8254 15.552L38.8494 17.904C37.7828 17.328 36.7481 17.04 35.7454 17.04C35.1161 17.04 34.6574 17.136 34.3694 17.328C34.0814 17.5093 33.9374 17.7493 33.9374 18.048C33.9374 18.3467 34.1081 18.5707 34.4494 18.72C34.7908 18.8693 35.3401 19.024 36.0974 19.184C36.9508 19.3653 37.6548 19.5627 38.2094 19.776C38.7748 19.9787 39.2601 20.3093 39.6654 20.768C40.0814 21.216 40.2894 21.8293 40.2894 22.608C40.2894 23.28 40.1028 23.888 39.7294 24.432C39.3561 24.976 38.7961 25.4133 38.0494 25.744C37.3028 26.064 36.3961 26.224 35.3294 26.224ZM50.7288 17.328V26H47.8328V25.072C47.5128 25.424 47.1288 25.6907 46.6808 25.872C46.2328 26.0533 45.7581 26.144 45.2568 26.144C44.1368 26.144 43.2408 25.8133 42.5688 25.152C41.9075 24.4907 41.5768 23.4987 41.5768 22.176V17.328H44.6168V21.68C44.6168 22.3307 44.7395 22.8053 44.9848 23.104C45.2301 23.4027 45.5875 23.552 46.0568 23.552C46.5368 23.552 46.9261 23.3867 47.2248 23.056C47.5341 22.7147 47.6888 22.1973 47.6888 21.504V17.328H50.7288ZM58.1429 17.184C58.9323 17.184 59.6469 17.3653 60.2869 17.728C60.9376 18.0907 61.4496 18.6133 61.8229 19.296C62.2069 19.968 62.3989 20.752 62.3989 21.648C62.3989 22.544 62.2069 23.3333 61.8229 24.016C61.4496 24.6987 60.9376 25.2267 60.2869 25.6C59.6469 25.9627 58.9323 26.144 58.1429 26.144C57.0016 26.144 56.1483 25.808 55.5829 25.136V26H52.6869V14.128H55.7269V18.08C56.3136 17.4827 57.1189 17.184 58.1429 17.184ZM57.5029 23.728C58.0363 23.728 58.4736 23.5467 58.8149 23.184C59.1563 22.8107 59.3269 22.2987 59.3269 21.648C59.3269 21.008 59.1563 20.5067 58.8149 20.144C58.4736 19.7813 58.0363 19.6 57.5029 19.6C56.9696 19.6 56.5323 19.7813 56.1909 20.144C55.8496 20.5067 55.6789 21.008 55.6789 21.648C55.6789 22.2987 55.8496 22.8107 56.1909 23.184C56.5323 23.5467 56.9696 23.728 57.5029 23.728ZM66.9639 26.144C66.2386 26.144 65.5239 26.064 64.8199 25.904C64.1159 25.7333 63.5506 25.5147 63.1239 25.248L64.0359 23.168C64.4306 23.4133 64.8999 23.6107 65.4439 23.76C65.9879 23.8987 66.5266 23.968 67.0599 23.968C67.5506 23.968 67.8973 23.92 68.0999 23.824C68.3133 23.7173 68.4199 23.568 68.4199 23.376C68.4199 23.184 68.2919 23.0507 68.0359 22.976C67.7906 22.8907 67.3959 22.8107 66.8519 22.736C66.1586 22.6507 65.5666 22.5387 65.0759 22.4C64.5959 22.2613 64.1799 22.0053 63.8279 21.632C63.4759 21.2587 63.2999 20.736 63.2999 20.064C63.2999 19.5093 63.4653 19.0187 63.7959 18.592C64.1266 18.1547 64.6066 17.8133 65.2359 17.568C65.8759 17.312 66.6386 17.184 67.5239 17.184C68.1533 17.184 68.7773 17.248 69.3959 17.376C70.0146 17.504 70.5319 17.6853 70.9479 17.92L70.0359 19.984C69.2679 19.5573 68.4359 19.344 67.5399 19.344C67.0599 19.344 66.7079 19.4027 66.4839 19.52C66.2599 19.6267 66.1479 19.7707 66.1479 19.952C66.1479 20.1547 66.2706 20.2987 66.5159 20.384C66.7613 20.4587 67.1666 20.5387 67.7319 20.624C68.4466 20.7307 69.0386 20.8533 69.5079 20.992C69.9773 21.1307 70.3826 21.3867 70.7239 21.76C71.0759 22.1227 71.2519 22.6347 71.2519 23.296C71.2519 23.84 71.0866 24.3307 70.7559 24.768C70.4253 25.1947 69.9346 25.5307 69.2839 25.776C68.6439 26.0213 67.8706 26.144 66.9639 26.144ZM76.9939 26.144C76.0339 26.144 75.1753 25.952 74.4179 25.568C73.6606 25.184 73.0686 24.6507 72.6419 23.968C72.2259 23.2853 72.0179 22.512 72.0179 21.648C72.0179 20.784 72.2259 20.016 72.6419 19.344C73.0686 18.6613 73.6606 18.1333 74.4179 17.76C75.1753 17.376 76.0339 17.184 76.9939 17.184C77.9753 17.184 78.8233 17.3973 79.5379 17.824C80.2526 18.24 80.7593 18.8213 81.0579 19.568L78.7059 20.768C78.3113 19.9893 77.7353 19.6 76.9779 19.6C76.4339 19.6 75.9806 19.7813 75.6179 20.144C75.2659 20.5067 75.0899 21.008 75.0899 21.648C75.0899 22.2987 75.2659 22.8107 75.6179 23.184C75.9806 23.5467 76.4339 23.728 76.9779 23.728C77.7353 23.728 78.3113 23.3387 78.7059 22.56L81.0579 23.76C80.7593 24.5067 80.2526 25.0933 79.5379 25.52C78.8233 25.936 77.9753 26.144 76.9939 26.144ZM85.0986 18.368C85.4079 17.9733 85.8079 17.68 86.2986 17.488C86.7999 17.2853 87.3706 17.184 88.0106 17.184V19.92C87.7332 19.888 87.5039 19.872 87.3226 19.872C86.6719 19.872 86.1599 20.048 85.7866 20.4C85.4239 20.752 85.2426 21.2907 85.2426 22.016V26H82.2026V17.328H85.0986V18.368ZM89.2963 17.328H92.3363V26H89.2963V17.328ZM90.8163 16.368C90.2616 16.368 89.8136 16.2133 89.4723 15.904C89.131 15.5947 88.9603 15.2107 88.9603 14.752C88.9603 14.2933 89.131 13.9093 89.4723 13.6C89.8136 13.2907 90.2616 13.136 90.8163 13.136C91.371 13.136 91.819 13.2853 92.1603 13.584C92.5016 13.872 92.6723 14.2453 92.6723 14.704C92.6723 15.184 92.5016 15.584 92.1603 15.904C91.819 16.2133 91.371 16.368 90.8163 16.368ZM99.7679 17.184C100.557 17.184 101.272 17.3653 101.912 17.728C102.563 18.0907 103.075 18.6133 103.448 19.296C103.832 19.968 104.024 20.752 104.024 21.648C104.024 22.544 103.832 23.3333 103.448 24.016C103.075 24.6987 102.563 25.2267 101.912 25.6C101.272 25.9627 100.557 26.144 99.7679 26.144C98.6266 26.144 97.7733 25.808 97.2079 25.136V26H94.3119V14.128H97.3519V18.08C97.9386 17.4827 98.7439 17.184 99.7679 17.184ZM99.1279 23.728C99.6613 23.728 100.099 23.5467 100.44 23.184C100.781 22.8107 100.952 22.2987 100.952 21.648C100.952 21.008 100.781 20.5067 100.44 20.144C100.099 19.7813 99.6613 19.6 99.1279 19.6C98.5946 19.6 98.1573 19.7813 97.8159 20.144C97.4746 20.5067 97.3039 21.008 97.3039 21.648C97.3039 22.2987 97.4746 22.8107 97.8159 23.184C98.1573 23.5467 98.5946 23.728 99.1279 23.728ZM114.301 21.68C114.301 21.7013 114.285 21.952 114.253 22.432H107.949C108.077 22.88 108.322 23.2267 108.685 23.472C109.058 23.7067 109.522 23.824 110.077 23.824C110.493 23.824 110.85 23.7653 111.149 23.648C111.458 23.5307 111.768 23.3387 112.077 23.072L113.677 24.736C112.834 25.6747 111.602 26.144 109.981 26.144C108.968 26.144 108.077 25.952 107.309 25.568C106.541 25.184 105.944 24.6507 105.517 23.968C105.101 23.2853 104.893 22.512 104.893 21.648C104.893 20.7947 105.096 20.032 105.501 19.36C105.917 18.6773 106.488 18.144 107.213 17.76C107.938 17.376 108.754 17.184 109.661 17.184C110.525 17.184 111.309 17.3653 112.013 17.728C112.717 18.08 113.272 18.5973 113.677 19.28C114.093 19.952 114.301 20.752 114.301 21.68ZM109.677 19.344C109.208 19.344 108.813 19.4773 108.493 19.744C108.184 20.0107 107.986 20.3733 107.901 20.832H111.453C111.368 20.3733 111.165 20.0107 110.845 19.744C110.536 19.4773 110.146 19.344 109.677 19.344Z" fill="white"/>
</g>
<defs>
<filter id="filter0_d_36_28" x="26.6094" y="13.136" width="91.6915" height="21.088" filterUnits="userSpaceOnUse" color-interpolation-filters="sRGB">
<feFlood flood-opacity="0" result="BackgroundImageFix"/>
<feColorMatrix in="SourceAlpha" type="matrix" values="0 0 0 0 0 0 0 0 0 0 0 0 0 0 0 0 0 0 127 0" result="hardAlpha"/>
<feOffset dy="4"/>
<feGaussianBlur stdDeviation="2"/>
<feColorMatrix type="matrix" values="0 0 0 0 0 0 0 0 0 0 0 0 0 0 0 0 0 0 0.25 0"/>
<feBlend mode="normal" in2="BackgroundImageFix" result="effect1_dropShadow_36_28"/>
<feBlend mode="normal" in="SourceGraphic" in2="effect1_dropShadow_36_28" result="shape"/>
</filter>
<linearGradient id="paint0_linear_36_28" x1="145" y1="20" x2="-8.10403e-07" y2="20" gradientUnits="userSpaceOnUse">
<stop stop-color="#9562F7"/>
<stop offset="1" stop-color="#8245D8"/>
</linearGradient>
</defs>
</svg>
