<svg width="68" height="55" viewBox="0 0 68 55" fill="none" xmlns="http://www.w3.org/2000/svg">
<path d="M67.4531 6.54266C64.931 7.65996 62.2557 8.393 59.5163 8.71733C62.4017 6.99089 64.561 4.27422 65.5916 1.07362C62.8795 2.68367 59.9116 3.81742 56.8168 4.42572C55.5238 3.04659 53.9613 1.94769 52.2262 1.19713C50.4911 0.446571 48.6204 0.0603449 46.7299 0.062386C39.0984 0.062386 32.9103 6.24873 32.9103 13.8819C32.9103 14.964 33.0328 16.0199 33.269 17.032C21.7833 16.4555 11.601 10.9532 4.78482 2.59134C3.55583 4.70046 2.91004 7.09855 2.91369 9.53961C2.91188 11.8149 3.47213 14.0554 4.54465 16.062C5.61718 18.0686 7.16877 19.7793 9.06155 21.0419C6.86738 20.9722 4.72156 20.3796 2.8026 19.3134C2.80085 19.3711 2.80085 19.428 2.80085 19.4875C2.80085 26.1812 7.56395 31.7666 13.885 33.0376C11.8497 33.5886 9.71562 33.6694 7.64443 33.2738C9.40271 38.7629 14.5061 42.7597 20.5534 42.8717C15.6581 46.7133 9.61311 48.797 3.39044 48.7878C2.27511 48.7878 1.17553 48.723 0.0934448 48.5944C6.41218 52.6544 13.7662 54.8093 21.2768 54.8018C46.6958 54.8018 60.5958 33.7453 60.5958 15.4854C60.5958 14.8871 60.5818 14.2896 60.5556 13.6956C63.2626 11.7413 65.5985 9.31889 67.4531 6.54266Z" fill="url(#paint0_linear_31_64)"/>
<defs>
<linearGradient id="paint0_linear_31_64" x1="33.7733" y1="0.0623779" x2="33.7733" y2="54.8018" gradientUnits="userSpaceOnUse">
<stop stop-color="#935FF4"/>
<stop offset="1" stop-color="#8447DB"/>
</linearGradient>
</defs>
</svg>
