<svg width="336" height="336" viewBox="0 0 336 336" fill="none" xmlns="http://www.w3.org/2000/svg">
<path d="M314.711 336H146.875C140.974 336 136.002 333.922 131.96 329.766C127.917 325.609 125.895 320.688 125.895 315V147C125.895 141.094 127.917 136.117 131.96 132.07C136.002 128.023 140.974 126 146.875 126H314.711C320.611 126 325.583 128.023 329.626 132.07C333.669 136.117 335.69 141.094 335.69 147V315C335.69 320.906 333.669 325.883 329.626 329.93C325.583 333.977 320.611 336 314.711 336ZM293.731 178.5C293.731 175.656 292.693 173.195 290.617 171.117C288.541 169.039 286.082 168 283.241 168H178.344C175.503 168 173.044 169.039 170.968 171.117C168.892 173.195 167.854 175.656 167.854 178.5V283.5C167.854 286.344 168.892 288.805 170.968 290.883C173.044 292.961 175.503 294 178.344 294H283.241C286.082 294 288.541 292.961 290.617 290.883C292.693 288.805 293.731 286.344 293.731 283.5V178.5ZM314.711 105H146.875C140.974 105 136.002 102.922 131.96 98.7656C127.917 94.6094 125.895 89.6875 125.895 84V21C125.895 15.3125 127.917 10.3906 131.96 6.23438C136.002 2.07812 140.974 0 146.875 0H314.711C320.611 0 325.583 2.07812 329.626 6.23438C333.669 10.3906 335.69 15.3125 335.69 21V84C335.69 89.9062 333.669 94.8828 329.626 98.9297C325.583 102.977 320.611 105 314.711 105ZM83.9361 336H20.9976C15.3156 336 10.3986 333.922 6.24636 329.766C2.09416 325.609 0.0180664 320.688 0.0180664 315V21C0.0180664 15.3125 2.09416 10.3906 6.24636 6.23438C10.3986 2.07812 15.3156 0 20.9976 0H83.9361C89.8366 0 94.8083 2.07812 98.8512 6.23438C102.894 10.3906 104.916 15.3125 104.916 21V315C104.916 320.906 102.894 325.883 98.8512 329.93C94.8083 333.977 89.8366 336 83.9361 336Z" fill="url(#paint0_linear_71_58)" fill-opacity="0.1"/>
<defs>
<linearGradient id="paint0_linear_71_58" x1="91.7166" y1="365.332" x2="269.549" y2="-40.3233" gradientUnits="userSpaceOnUse">
<stop stop-color="#9664F9"/>
<stop offset="0.912448" stop-color="#9664F9" stop-opacity="0"/>
</linearGradient>
</defs>
</svg>
